<?xml version="1.0" encoding="utf-8" standalone="no"?>
<!DOCTYPE svg PUBLIC "-//W3C//DTD SVG 1.1//EN"
  "http://www.w3.org/Graphics/SVG/1.1/DTD/svg11.dtd">
<svg xmlns:xlink="http://www.w3.org/1999/xlink" width="420.82625pt" height="310.86825pt" viewBox="0 0 420.82625 310.86825" xmlns="http://www.w3.org/2000/svg" version="1.1">
 <metadata>
  <rdf:RDF xmlns:dc="http://purl.org/dc/elements/1.1/" xmlns:cc="http://creativecommons.org/ns#" xmlns:rdf="http://www.w3.org/1999/02/22-rdf-syntax-ns#">
   <cc:Work>
    <dc:type rdf:resource="http://purl.org/dc/dcmitype/StillImage"/>
    <dc:date>2025-07-16T10:00:14.019166</dc:date>
    <dc:format>image/svg+xml</dc:format>
    <dc:creator>
     <cc:Agent>
      <dc:title>Matplotlib v3.8.0, https://matplotlib.org/</dc:title>
     </cc:Agent>
    </dc:creator>
   </cc:Work>
  </rdf:RDF>
 </metadata>
 <defs>
  <style type="text/css">*{stroke-linejoin: round; stroke-linecap: butt}</style>
 </defs>
 <g id="figure_1">
  <g id="patch_1">
   <path d="M 0 310.86825 
L 420.82625 310.86825 
L 420.82625 0 
L 0 0 
z
" style="fill: #ffffff"/>
  </g>
  <g id="axes_1">
   <g id="patch_2">
    <path d="M 56.50625 273.312 
L 413.62625 273.312 
L 413.62625 7.2 
L 56.50625 7.2 
z
" style="fill: #ffffff"/>
   </g>
   <g id="matplotlib.axis_1">
    <g id="xtick_1">
     <g id="line2d_1">
      <defs>
       <path id="mf605df0f26" d="M 0 0 
L 0 3.5 
" style="stroke: #000000; stroke-width: 0.8"/>
      </defs>
      <g>
       <use xlink:href="#mf605df0f26" x="99.793523" y="273.312" style="stroke: #000000; stroke-width: 0.8"/>
      </g>
     </g>
     <g id="text_1">
      <!-- −15 -->
      <g transform="translate(89.241179 287.910437) scale(0.1 -0.1)">
       <defs>
        <path id="DejaVuSans-2212" d="M 678 2272 
L 4684 2272 
L 4684 1741 
L 678 1741 
L 678 2272 
z
" transform="scale(0.015625)"/>
        <path id="DejaVuSans-31" d="M 794 531 
L 1825 531 
L 1825 4091 
L 703 3866 
L 703 4441 
L 1819 4666 
L 2450 4666 
L 2450 531 
L 3481 531 
L 3481 0 
L 794 0 
L 794 531 
z
" transform="scale(0.015625)"/>
        <path id="DejaVuSans-35" d="M 691 4666 
L 3169 4666 
L 3169 4134 
L 1269 4134 
L 1269 2991 
Q 1406 3038 1543 3061 
Q 1681 3084 1819 3084 
Q 2600 3084 3056 2656 
Q 3513 2228 3513 1497 
Q 3513 744 3044 326 
Q 2575 -91 1722 -91 
Q 1428 -91 1123 -41 
Q 819 9 494 109 
L 494 744 
Q 775 591 1075 516 
Q 1375 441 1709 441 
Q 2250 441 2565 725 
Q 2881 1009 2881 1497 
Q 2881 1984 2565 2268 
Q 2250 2553 1709 2553 
Q 1456 2553 1204 2497 
Q 953 2441 691 2322 
L 691 4666 
z
" transform="scale(0.015625)"/>
       </defs>
       <use xlink:href="#DejaVuSans-2212"/>
       <use xlink:href="#DejaVuSans-31" x="83.789062"/>
       <use xlink:href="#DejaVuSans-35" x="147.412109"/>
      </g>
     </g>
    </g>
    <g id="xtick_2">
     <g id="line2d_2">
      <g>
       <use xlink:href="#mf605df0f26" x="144.884432" y="273.312" style="stroke: #000000; stroke-width: 0.8"/>
      </g>
     </g>
     <g id="text_2">
      <!-- −10 -->
      <g transform="translate(134.332088 287.910437) scale(0.1 -0.1)">
       <defs>
        <path id="DejaVuSans-30" d="M 2034 4250 
Q 1547 4250 1301 3770 
Q 1056 3291 1056 2328 
Q 1056 1369 1301 889 
Q 1547 409 2034 409 
Q 2525 409 2770 889 
Q 3016 1369 3016 2328 
Q 3016 3291 2770 3770 
Q 2525 4250 2034 4250 
z
M 2034 4750 
Q 2819 4750 3233 4129 
Q 3647 3509 3647 2328 
Q 3647 1150 3233 529 
Q 2819 -91 2034 -91 
Q 1250 -91 836 529 
Q 422 1150 422 2328 
Q 422 3509 836 4129 
Q 1250 4750 2034 4750 
z
" transform="scale(0.015625)"/>
       </defs>
       <use xlink:href="#DejaVuSans-2212"/>
       <use xlink:href="#DejaVuSans-31" x="83.789062"/>
       <use xlink:href="#DejaVuSans-30" x="147.412109"/>
      </g>
     </g>
    </g>
    <g id="xtick_3">
     <g id="line2d_3">
      <g>
       <use xlink:href="#mf605df0f26" x="189.975341" y="273.312" style="stroke: #000000; stroke-width: 0.8"/>
      </g>
     </g>
     <g id="text_3">
      <!-- −5 -->
      <g transform="translate(182.604247 287.910437) scale(0.1 -0.1)">
       <use xlink:href="#DejaVuSans-2212"/>
       <use xlink:href="#DejaVuSans-35" x="83.789062"/>
      </g>
     </g>
    </g>
    <g id="xtick_4">
     <g id="line2d_4">
      <g>
       <use xlink:href="#mf605df0f26" x="235.06625" y="273.312" style="stroke: #000000; stroke-width: 0.8"/>
      </g>
     </g>
     <g id="text_4">
      <!-- 0 -->
      <g transform="translate(231.885 287.910437) scale(0.1 -0.1)">
       <use xlink:href="#DejaVuSans-30"/>
      </g>
     </g>
    </g>
    <g id="xtick_5">
     <g id="line2d_5">
      <g>
       <use xlink:href="#mf605df0f26" x="280.157159" y="273.312" style="stroke: #000000; stroke-width: 0.8"/>
      </g>
     </g>
     <g id="text_5">
      <!-- 5 -->
      <g transform="translate(276.975909 287.910437) scale(0.1 -0.1)">
       <use xlink:href="#DejaVuSans-35"/>
      </g>
     </g>
    </g>
    <g id="xtick_6">
     <g id="line2d_6">
      <g>
       <use xlink:href="#mf605df0f26" x="325.248068" y="273.312" style="stroke: #000000; stroke-width: 0.8"/>
      </g>
     </g>
     <g id="text_6">
      <!-- 10 -->
      <g transform="translate(318.885568 287.910437) scale(0.1 -0.1)">
       <use xlink:href="#DejaVuSans-31"/>
       <use xlink:href="#DejaVuSans-30" x="63.623047"/>
      </g>
     </g>
    </g>
    <g id="xtick_7">
     <g id="line2d_7">
      <g>
       <use xlink:href="#mf605df0f26" x="370.338977" y="273.312" style="stroke: #000000; stroke-width: 0.8"/>
      </g>
     </g>
     <g id="text_7">
      <!-- 15 -->
      <g transform="translate(363.976477 287.910437) scale(0.1 -0.1)">
       <use xlink:href="#DejaVuSans-31"/>
       <use xlink:href="#DejaVuSans-35" x="63.623047"/>
      </g>
     </g>
    </g>
    <g id="text_8">
     <!-- \theta (degrees) -->
     <g transform="translate(194.535781 301.588562) scale(0.1 -0.1)">
      <defs>
       <path id="DejaVuSans-5c" d="M 531 4666 
L 2156 -594 
L 1625 -594 
L 0 4666 
L 531 4666 
z
" transform="scale(0.015625)"/>
       <path id="DejaVuSans-74" d="M 1172 4494 
L 1172 3500 
L 2356 3500 
L 2356 3053 
L 1172 3053 
L 1172 1153 
Q 1172 725 1289 603 
Q 1406 481 1766 481 
L 2356 481 
L 2356 0 
L 1766 0 
Q 1100 0 847 248 
Q 594 497 594 1153 
L 594 3053 
L 172 3053 
L 172 3500 
L 594 3500 
L 594 4494 
L 1172 4494 
z
" transform="scale(0.015625)"/>
       <path id="DejaVuSans-68" d="M 3513 2113 
L 3513 0 
L 2938 0 
L 2938 2094 
Q 2938 2591 2744 2837 
Q 2550 3084 2163 3084 
Q 1697 3084 1428 2787 
Q 1159 2491 1159 1978 
L 1159 0 
L 581 0 
L 581 4863 
L 1159 4863 
L 1159 2956 
Q 1366 3272 1645 3428 
Q 1925 3584 2291 3584 
Q 2894 3584 3203 3211 
Q 3513 2838 3513 2113 
z
" transform="scale(0.015625)"/>
       <path id="DejaVuSans-65" d="M 3597 1894 
L 3597 1613 
L 953 1613 
Q 991 1019 1311 708 
Q 1631 397 2203 397 
Q 2534 397 2845 478 
Q 3156 559 3463 722 
L 3463 178 
Q 3153 47 2828 -22 
Q 2503 -91 2169 -91 
Q 1331 -91 842 396 
Q 353 884 353 1716 
Q 353 2575 817 3079 
Q 1281 3584 2069 3584 
Q 2775 3584 3186 3129 
Q 3597 2675 3597 1894 
z
M 3022 2063 
Q 3016 2534 2758 2815 
Q 2500 3097 2075 3097 
Q 1594 3097 1305 2825 
Q 1016 2553 972 2059 
L 3022 2063 
z
" transform="scale(0.015625)"/>
       <path id="DejaVuSans-61" d="M 2194 1759 
Q 1497 1759 1228 1600 
Q 959 1441 959 1056 
Q 959 750 1161 570 
Q 1363 391 1709 391 
Q 2188 391 2477 730 
Q 2766 1069 2766 1631 
L 2766 1759 
L 2194 1759 
z
M 3341 1997 
L 3341 0 
L 2766 0 
L 2766 531 
Q 2569 213 2275 61 
Q 1981 -91 1556 -91 
Q 1019 -91 701 211 
Q 384 513 384 1019 
Q 384 1609 779 1909 
Q 1175 2209 1959 2209 
L 2766 2209 
L 2766 2266 
Q 2766 2663 2505 2880 
Q 2244 3097 1772 3097 
Q 1472 3097 1187 3025 
Q 903 2953 641 2809 
L 641 3341 
Q 956 3463 1253 3523 
Q 1550 3584 1831 3584 
Q 2591 3584 2966 3190 
Q 3341 2797 3341 1997 
z
" transform="scale(0.015625)"/>
       <path id="DejaVuSans-20" transform="scale(0.015625)"/>
       <path id="DejaVuSans-28" d="M 1984 4856 
Q 1566 4138 1362 3434 
Q 1159 2731 1159 2009 
Q 1159 1288 1364 580 
Q 1569 -128 1984 -844 
L 1484 -844 
Q 1016 -109 783 600 
Q 550 1309 550 2009 
Q 550 2706 781 3412 
Q 1013 4119 1484 4856 
L 1984 4856 
z
" transform="scale(0.015625)"/>
       <path id="DejaVuSans-64" d="M 2906 2969 
L 2906 4863 
L 3481 4863 
L 3481 0 
L 2906 0 
L 2906 525 
Q 2725 213 2448 61 
Q 2172 -91 1784 -91 
Q 1150 -91 751 415 
Q 353 922 353 1747 
Q 353 2572 751 3078 
Q 1150 3584 1784 3584 
Q 2172 3584 2448 3432 
Q 2725 3281 2906 2969 
z
M 947 1747 
Q 947 1113 1208 752 
Q 1469 391 1925 391 
Q 2381 391 2643 752 
Q 2906 1113 2906 1747 
Q 2906 2381 2643 2742 
Q 2381 3103 1925 3103 
Q 1469 3103 1208 2742 
Q 947 2381 947 1747 
z
" transform="scale(0.015625)"/>
       <path id="DejaVuSans-67" d="M 2906 1791 
Q 2906 2416 2648 2759 
Q 2391 3103 1925 3103 
Q 1463 3103 1205 2759 
Q 947 2416 947 1791 
Q 947 1169 1205 825 
Q 1463 481 1925 481 
Q 2391 481 2648 825 
Q 2906 1169 2906 1791 
z
M 3481 434 
Q 3481 -459 3084 -895 
Q 2688 -1331 1869 -1331 
Q 1566 -1331 1297 -1286 
Q 1028 -1241 775 -1147 
L 775 -588 
Q 1028 -725 1275 -790 
Q 1522 -856 1778 -856 
Q 2344 -856 2625 -561 
Q 2906 -266 2906 331 
L 2906 616 
Q 2728 306 2450 153 
Q 2172 0 1784 0 
Q 1141 0 747 490 
Q 353 981 353 1791 
Q 353 2603 747 3093 
Q 1141 3584 1784 3584 
Q 2172 3584 2450 3431 
Q 2728 3278 2906 2969 
L 2906 3500 
L 3481 3500 
L 3481 434 
z
" transform="scale(0.015625)"/>
       <path id="DejaVuSans-72" d="M 2631 2963 
Q 2534 3019 2420 3045 
Q 2306 3072 2169 3072 
Q 1681 3072 1420 2755 
Q 1159 2438 1159 1844 
L 1159 0 
L 581 0 
L 581 3500 
L 1159 3500 
L 1159 2956 
Q 1341 3275 1631 3429 
Q 1922 3584 2338 3584 
Q 2397 3584 2469 3576 
Q 2541 3569 2628 3553 
L 2631 2963 
z
" transform="scale(0.015625)"/>
       <path id="DejaVuSans-73" d="M 2834 3397 
L 2834 2853 
Q 2591 2978 2328 3040 
Q 2066 3103 1784 3103 
Q 1356 3103 1142 2972 
Q 928 2841 928 2578 
Q 928 2378 1081 2264 
Q 1234 2150 1697 2047 
L 1894 2003 
Q 2506 1872 2764 1633 
Q 3022 1394 3022 966 
Q 3022 478 2636 193 
Q 2250 -91 1575 -91 
Q 1294 -91 989 -36 
Q 684 19 347 128 
L 347 722 
Q 666 556 975 473 
Q 1284 391 1588 391 
Q 1994 391 2212 530 
Q 2431 669 2431 922 
Q 2431 1156 2273 1281 
Q 2116 1406 1581 1522 
L 1381 1569 
Q 847 1681 609 1914 
Q 372 2147 372 2553 
Q 372 3047 722 3315 
Q 1072 3584 1716 3584 
Q 2034 3584 2315 3537 
Q 2597 3491 2834 3397 
z
" transform="scale(0.015625)"/>
       <path id="DejaVuSans-29" d="M 513 4856 
L 1013 4856 
Q 1481 4119 1714 3412 
Q 1947 2706 1947 2009 
Q 1947 1309 1714 600 
Q 1481 -109 1013 -844 
L 513 -844 
Q 928 -128 1133 580 
Q 1338 1288 1338 2009 
Q 1338 2731 1133 3434 
Q 928 4138 513 4856 
z
" transform="scale(0.015625)"/>
      </defs>
      <use xlink:href="#DejaVuSans-5c"/>
      <use xlink:href="#DejaVuSans-74" x="33.691406"/>
      <use xlink:href="#DejaVuSans-68" x="72.900391"/>
      <use xlink:href="#DejaVuSans-65" x="136.279297"/>
      <use xlink:href="#DejaVuSans-74" x="197.802734"/>
      <use xlink:href="#DejaVuSans-61" x="237.011719"/>
      <use xlink:href="#DejaVuSans-20" x="298.291016"/>
      <use xlink:href="#DejaVuSans-28" x="330.078125"/>
      <use xlink:href="#DejaVuSans-64" x="369.091797"/>
      <use xlink:href="#DejaVuSans-65" x="432.568359"/>
      <use xlink:href="#DejaVuSans-67" x="494.091797"/>
      <use xlink:href="#DejaVuSans-72" x="557.568359"/>
      <use xlink:href="#DejaVuSans-65" x="596.431641"/>
      <use xlink:href="#DejaVuSans-65" x="657.955078"/>
      <use xlink:href="#DejaVuSans-73" x="719.478516"/>
      <use xlink:href="#DejaVuSans-29" x="771.578125"/>
     </g>
    </g>
   </g>
   <g id="matplotlib.axis_2">
    <g id="ytick_1">
     <g id="line2d_8">
      <defs>
       <path id="mc554d51fff" d="M 0 0 
L -3.5 0 
" style="stroke: #000000; stroke-width: 0.8"/>
      </defs>
      <g>
       <use xlink:href="#mc554d51fff" x="56.50625" y="261.222031" style="stroke: #000000; stroke-width: 0.8"/>
      </g>
     </g>
     <g id="text_9">
      <!-- 0.000 -->
      <g transform="translate(20.878125 265.021249) scale(0.1 -0.1)">
       <defs>
        <path id="DejaVuSans-2e" d="M 684 794 
L 1344 794 
L 1344 0 
L 684 0 
L 684 794 
z
" transform="scale(0.015625)"/>
       </defs>
       <use xlink:href="#DejaVuSans-30"/>
       <use xlink:href="#DejaVuSans-2e" x="63.623047"/>
       <use xlink:href="#DejaVuSans-30" x="95.410156"/>
       <use xlink:href="#DejaVuSans-30" x="159.033203"/>
       <use xlink:href="#DejaVuSans-30" x="222.65625"/>
      </g>
     </g>
    </g>
    <g id="ytick_2">
     <g id="line2d_9">
      <g>
       <use xlink:href="#mc554d51fff" x="56.50625" y="214.773879" style="stroke: #000000; stroke-width: 0.8"/>
      </g>
     </g>
     <g id="text_10">
      <!-- 0.001 -->
      <g transform="translate(20.878125 218.573098) scale(0.1 -0.1)">
       <use xlink:href="#DejaVuSans-30"/>
       <use xlink:href="#DejaVuSans-2e" x="63.623047"/>
       <use xlink:href="#DejaVuSans-30" x="95.410156"/>
       <use xlink:href="#DejaVuSans-30" x="159.033203"/>
       <use xlink:href="#DejaVuSans-31" x="222.65625"/>
      </g>
     </g>
    </g>
    <g id="ytick_3">
     <g id="line2d_10">
      <g>
       <use xlink:href="#mc554d51fff" x="56.50625" y="168.325727" style="stroke: #000000; stroke-width: 0.8"/>
      </g>
     </g>
     <g id="text_11">
      <!-- 0.002 -->
      <g transform="translate(20.878125 172.124946) scale(0.1 -0.1)">
       <defs>
        <path id="DejaVuSans-32" d="M 1228 531 
L 3431 531 
L 3431 0 
L 469 0 
L 469 531 
Q 828 903 1448 1529 
Q 2069 2156 2228 2338 
Q 2531 2678 2651 2914 
Q 2772 3150 2772 3378 
Q 2772 3750 2511 3984 
Q 2250 4219 1831 4219 
Q 1534 4219 1204 4116 
Q 875 4013 500 3803 
L 500 4441 
Q 881 4594 1212 4672 
Q 1544 4750 1819 4750 
Q 2544 4750 2975 4387 
Q 3406 4025 3406 3419 
Q 3406 3131 3298 2873 
Q 3191 2616 2906 2266 
Q 2828 2175 2409 1742 
Q 1991 1309 1228 531 
z
" transform="scale(0.015625)"/>
       </defs>
       <use xlink:href="#DejaVuSans-30"/>
       <use xlink:href="#DejaVuSans-2e" x="63.623047"/>
       <use xlink:href="#DejaVuSans-30" x="95.410156"/>
       <use xlink:href="#DejaVuSans-30" x="159.033203"/>
       <use xlink:href="#DejaVuSans-32" x="222.65625"/>
      </g>
     </g>
    </g>
    <g id="ytick_4">
     <g id="line2d_11">
      <g>
       <use xlink:href="#mc554d51fff" x="56.50625" y="121.877575" style="stroke: #000000; stroke-width: 0.8"/>
      </g>
     </g>
     <g id="text_12">
      <!-- 0.003 -->
      <g transform="translate(20.878125 125.676794) scale(0.1 -0.1)">
       <defs>
        <path id="DejaVuSans-33" d="M 2597 2516 
Q 3050 2419 3304 2112 
Q 3559 1806 3559 1356 
Q 3559 666 3084 287 
Q 2609 -91 1734 -91 
Q 1441 -91 1130 -33 
Q 819 25 488 141 
L 488 750 
Q 750 597 1062 519 
Q 1375 441 1716 441 
Q 2309 441 2620 675 
Q 2931 909 2931 1356 
Q 2931 1769 2642 2001 
Q 2353 2234 1838 2234 
L 1294 2234 
L 1294 2753 
L 1863 2753 
Q 2328 2753 2575 2939 
Q 2822 3125 2822 3475 
Q 2822 3834 2567 4026 
Q 2313 4219 1838 4219 
Q 1578 4219 1281 4162 
Q 984 4106 628 3988 
L 628 4550 
Q 988 4650 1302 4700 
Q 1616 4750 1894 4750 
Q 2613 4750 3031 4423 
Q 3450 4097 3450 3541 
Q 3450 3153 3228 2886 
Q 3006 2619 2597 2516 
z
" transform="scale(0.015625)"/>
       </defs>
       <use xlink:href="#DejaVuSans-30"/>
       <use xlink:href="#DejaVuSans-2e" x="63.623047"/>
       <use xlink:href="#DejaVuSans-30" x="95.410156"/>
       <use xlink:href="#DejaVuSans-30" x="159.033203"/>
       <use xlink:href="#DejaVuSans-33" x="222.65625"/>
      </g>
     </g>
    </g>
    <g id="ytick_5">
     <g id="line2d_12">
      <g>
       <use xlink:href="#mc554d51fff" x="56.50625" y="75.429423" style="stroke: #000000; stroke-width: 0.8"/>
      </g>
     </g>
     <g id="text_13">
      <!-- 0.004 -->
      <g transform="translate(20.878125 79.228642) scale(0.1 -0.1)">
       <defs>
        <path id="DejaVuSans-34" d="M 2419 4116 
L 825 1625 
L 2419 1625 
L 2419 4116 
z
M 2253 4666 
L 3047 4666 
L 3047 1625 
L 3713 1625 
L 3713 1100 
L 3047 1100 
L 3047 0 
L 2419 0 
L 2419 1100 
L 313 1100 
L 313 1709 
L 2253 4666 
z
" transform="scale(0.015625)"/>
       </defs>
       <use xlink:href="#DejaVuSans-30"/>
       <use xlink:href="#DejaVuSans-2e" x="63.623047"/>
       <use xlink:href="#DejaVuSans-30" x="95.410156"/>
       <use xlink:href="#DejaVuSans-30" x="159.033203"/>
       <use xlink:href="#DejaVuSans-34" x="222.65625"/>
      </g>
     </g>
    </g>
    <g id="ytick_6">
     <g id="line2d_13">
      <g>
       <use xlink:href="#mc554d51fff" x="56.50625" y="28.981272" style="stroke: #000000; stroke-width: 0.8"/>
      </g>
     </g>
     <g id="text_14">
      <!-- 0.005 -->
      <g transform="translate(20.878125 32.78049) scale(0.1 -0.1)">
       <use xlink:href="#DejaVuSans-30"/>
       <use xlink:href="#DejaVuSans-2e" x="63.623047"/>
       <use xlink:href="#DejaVuSans-30" x="95.410156"/>
       <use xlink:href="#DejaVuSans-30" x="159.033203"/>
       <use xlink:href="#DejaVuSans-35" x="222.65625"/>
      </g>
     </g>
    </g>
    <g id="text_15">
     <!-- Relative Amplitude -->
     <g transform="translate(14.798438 187.631781) rotate(-90) scale(0.1 -0.1)">
      <defs>
       <path id="DejaVuSans-52" d="M 2841 2188 
Q 3044 2119 3236 1894 
Q 3428 1669 3622 1275 
L 4263 0 
L 3584 0 
L 2988 1197 
Q 2756 1666 2539 1819 
Q 2322 1972 1947 1972 
L 1259 1972 
L 1259 0 
L 628 0 
L 628 4666 
L 2053 4666 
Q 2853 4666 3247 4331 
Q 3641 3997 3641 3322 
Q 3641 2881 3436 2590 
Q 3231 2300 2841 2188 
z
M 1259 4147 
L 1259 2491 
L 2053 2491 
Q 2509 2491 2742 2702 
Q 2975 2913 2975 3322 
Q 2975 3731 2742 3939 
Q 2509 4147 2053 4147 
L 1259 4147 
z
" transform="scale(0.015625)"/>
       <path id="DejaVuSans-6c" d="M 603 4863 
L 1178 4863 
L 1178 0 
L 603 0 
L 603 4863 
z
" transform="scale(0.015625)"/>
       <path id="DejaVuSans-69" d="M 603 3500 
L 1178 3500 
L 1178 0 
L 603 0 
L 603 3500 
z
M 603 4863 
L 1178 4863 
L 1178 4134 
L 603 4134 
L 603 4863 
z
" transform="scale(0.015625)"/>
       <path id="DejaVuSans-76" d="M 191 3500 
L 800 3500 
L 1894 563 
L 2988 3500 
L 3597 3500 
L 2284 0 
L 1503 0 
L 191 3500 
z
" transform="scale(0.015625)"/>
       <path id="DejaVuSans-41" d="M 2188 4044 
L 1331 1722 
L 3047 1722 
L 2188 4044 
z
M 1831 4666 
L 2547 4666 
L 4325 0 
L 3669 0 
L 3244 1197 
L 1141 1197 
L 716 0 
L 50 0 
L 1831 4666 
z
" transform="scale(0.015625)"/>
       <path id="DejaVuSans-6d" d="M 3328 2828 
Q 3544 3216 3844 3400 
Q 4144 3584 4550 3584 
Q 5097 3584 5394 3201 
Q 5691 2819 5691 2113 
L 5691 0 
L 5113 0 
L 5113 2094 
Q 5113 2597 4934 2840 
Q 4756 3084 4391 3084 
Q 3944 3084 3684 2787 
Q 3425 2491 3425 1978 
L 3425 0 
L 2847 0 
L 2847 2094 
Q 2847 2600 2669 2842 
Q 2491 3084 2119 3084 
Q 1678 3084 1418 2786 
Q 1159 2488 1159 1978 
L 1159 0 
L 581 0 
L 581 3500 
L 1159 3500 
L 1159 2956 
Q 1356 3278 1631 3431 
Q 1906 3584 2284 3584 
Q 2666 3584 2933 3390 
Q 3200 3197 3328 2828 
z
" transform="scale(0.015625)"/>
       <path id="DejaVuSans-70" d="M 1159 525 
L 1159 -1331 
L 581 -1331 
L 581 3500 
L 1159 3500 
L 1159 2969 
Q 1341 3281 1617 3432 
Q 1894 3584 2278 3584 
Q 2916 3584 3314 3078 
Q 3713 2572 3713 1747 
Q 3713 922 3314 415 
Q 2916 -91 2278 -91 
Q 1894 -91 1617 61 
Q 1341 213 1159 525 
z
M 3116 1747 
Q 3116 2381 2855 2742 
Q 2594 3103 2138 3103 
Q 1681 3103 1420 2742 
Q 1159 2381 1159 1747 
Q 1159 1113 1420 752 
Q 1681 391 2138 391 
Q 2594 391 2855 752 
Q 3116 1113 3116 1747 
z
" transform="scale(0.015625)"/>
       <path id="DejaVuSans-75" d="M 544 1381 
L 544 3500 
L 1119 3500 
L 1119 1403 
Q 1119 906 1312 657 
Q 1506 409 1894 409 
Q 2359 409 2629 706 
Q 2900 1003 2900 1516 
L 2900 3500 
L 3475 3500 
L 3475 0 
L 2900 0 
L 2900 538 
Q 2691 219 2414 64 
Q 2138 -91 1772 -91 
Q 1169 -91 856 284 
Q 544 659 544 1381 
z
M 1991 3584 
L 1991 3584 
z
" transform="scale(0.015625)"/>
      </defs>
      <use xlink:href="#DejaVuSans-52"/>
      <use xlink:href="#DejaVuSans-65" x="64.982422"/>
      <use xlink:href="#DejaVuSans-6c" x="126.505859"/>
      <use xlink:href="#DejaVuSans-61" x="154.289062"/>
      <use xlink:href="#DejaVuSans-74" x="215.568359"/>
      <use xlink:href="#DejaVuSans-69" x="254.777344"/>
      <use xlink:href="#DejaVuSans-76" x="282.560547"/>
      <use xlink:href="#DejaVuSans-65" x="341.740234"/>
      <use xlink:href="#DejaVuSans-20" x="403.263672"/>
      <use xlink:href="#DejaVuSans-41" x="435.050781"/>
      <use xlink:href="#DejaVuSans-6d" x="503.458984"/>
      <use xlink:href="#DejaVuSans-70" x="600.871094"/>
      <use xlink:href="#DejaVuSans-6c" x="664.347656"/>
      <use xlink:href="#DejaVuSans-69" x="692.130859"/>
      <use xlink:href="#DejaVuSans-74" x="719.914062"/>
      <use xlink:href="#DejaVuSans-75" x="759.123047"/>
      <use xlink:href="#DejaVuSans-64" x="822.501953"/>
      <use xlink:href="#DejaVuSans-65" x="885.978516"/>
     </g>
    </g>
   </g>
   <g id="line2d_14">
    <path d="M 72.738977 261.181377 
L 94.16832 261.170947 
L 111.766356 261.162165 
L 128.650081 261.174918 
L 147.384522 261.084399 
L 163.42406 261.165108 
L 173.327014 260.86531 
L 180.210379 260.768626 
L 186.119683 260.920005 
L 195.210919 261.178223 
L 198.555195 261.017791 
L 201.44491 260.658734 
L 204.172281 260.098052 
L 206.93212 259.298455 
L 209.886772 258.207009 
L 213.620673 256.570098 
L 221.023537 253.27271 
L 223.718439 252.362301 
L 225.991248 251.822388 
L 228.134182 251.538545 
L 230.17971 251.488357 
L 232.225239 251.661243 
L 234.368173 252.067667 
L 236.640982 252.728874 
L 239.303416 253.746222 
L 242.874973 255.371371 
L 249.563525 258.444645 
L 252.485708 259.517516 
L 255.180611 260.273767 
L 257.778107 260.774018 
L 260.537946 261.075294 
L 263.590004 261.179426 
L 267.648592 261.076904 
L 278.298326 260.712195 
L 283.915411 260.834695 
L 296.902892 261.208219 
L 305.020067 261.108124 
L 314.858084 261.042095 
L 340.21614 261.137776 
L 352.229559 261.157021 
L 368.301566 261.189576 
L 386.289227 261.190072 
L 397.393523 261.207134 
L 397.393523 261.207134 
" clip-path="url(#p774ae9e944)" style="fill: none; stroke: #1f77b4; stroke-width: 1.5; stroke-linecap: square"/>
   </g>
   <g id="line2d_15">
    <path d="M 72.738977 261.068881 
L 85.43424 261.200485 
L 94.200789 261.023315 
L 104.331024 260.856826 
L 111.604013 260.989911 
L 122.545965 261.202335 
L 128.390331 261.054617 
L 142.903841 260.551132 
L 148.001427 260.720817 
L 159.138192 261.1922 
L 162.872092 261.053884 
L 166.833274 260.672569 
L 177.93757 259.439338 
L 180.827284 259.462215 
L 183.68453 259.706349 
L 187.288556 260.261939 
L 192.483548 261.056544 
L 194.626482 261.138114 
L 196.412261 260.991496 
L 198.035696 260.636691 
L 199.561725 260.071603 
L 201.055285 259.277305 
L 202.548846 258.227499 
L 204.042406 256.905573 
L 205.633372 255.191099 
L 207.354213 253.000112 
L 209.237398 250.230389 
L 211.44527 246.558338 
L 214.497328 241.005956 
L 219.400102 232.076296 
L 221.478098 228.77999 
L 223.19894 226.452379 
L 224.660031 224.835793 
L 225.958779 223.720039 
L 227.160121 222.97499 
L 228.264057 222.544361 
L 229.303055 222.370073 
L 230.309585 222.42224 
L 231.348584 222.704362 
L 232.420051 223.229762 
L 233.556455 224.036956 
L 234.790266 225.192066 
L 236.153951 226.787355 
L 237.712449 228.969449 
L 239.563165 231.962665 
L 241.93338 236.248184 
L 249.336244 249.943064 
L 251.349304 253.044667 
L 253.135082 255.394457 
L 254.758517 257.179405 
L 256.284546 258.536903 
L 257.745638 259.542789 
L 259.20673 260.281105 
L 260.667821 260.774563 
L 262.19385 261.053976 
L 263.849754 261.127396 
L 265.797876 260.9823 
L 268.427841 260.542691 
L 274.6943 259.411766 
L 277.291796 259.220542 
L 279.856824 259.263319 
L 282.746538 259.540729 
L 287.064875 260.215548 
L 292.000118 260.922813 
L 295.214519 261.155779 
L 298.526327 261.172256 
L 302.714789 260.948489 
L 310.767027 260.487837 
L 314.923021 260.519578 
L 320.345294 260.814608 
L 327.520877 261.173818 
L 332.293776 261.169701 
L 349.891813 260.896029 
L 363.496198 261.193491 
L 373.399152 260.985898 
L 380.412392 260.982082 
L 397.393523 261.173205 
L 397.393523 261.173205 
" clip-path="url(#p774ae9e944)" style="fill: none; stroke: #ff7f0e; stroke-width: 1.5; stroke-linecap: square"/>
   </g>
   <g id="line2d_16">
    <path d="M 72.738977 260.884886 
L 82.512056 261.195036 
L 87.707049 261.121492 
L 94.038445 260.790178 
L 101.765996 260.424242 
L 106.376552 260.444844 
L 111.571544 260.707061 
L 120.4355 261.185428 
L 124.364213 261.136635 
L 128.292925 260.862476 
L 134.949009 260.123323 
L 139.299815 259.767442 
L 142.611623 259.717317 
L 145.92343 259.894775 
L 149.852143 260.343288 
L 156.410821 261.102577 
L 159.17066 261.171115 
L 161.703219 261.013065 
L 164.17084 260.630433 
L 166.963149 259.964537 
L 171.249017 258.669069 
L 174.755637 257.714446 
L 177.060915 257.314371 
L 179.009037 257.196389 
L 180.92469 257.301312 
L 182.840344 257.630197 
L 184.885872 258.215678 
L 187.775586 259.296993 
L 191.44455 260.643159 
L 193.132922 261.009945 
L 194.529076 261.088021 
L 195.762887 260.934579 
L 196.899291 260.569816 
L 198.003227 259.977464 
L 199.074694 259.149134 
L 200.17863 258.012932 
L 201.347504 256.48025 
L 202.581314 254.47515 
L 203.847594 251.982015 
L 205.211279 248.790905 
L 206.737308 244.624409 
L 208.393212 239.435932 
L 210.243928 232.884143 
L 212.581674 223.734779 
L 217.094824 204.911353 
L 219.757257 194.386417 
L 221.640442 187.795796 
L 223.19894 183.103861 
L 224.530156 179.767202 
L 225.666561 177.479546 
L 226.673091 175.911995 
L 227.582214 174.880482 
L 228.393932 174.277791 
L 229.140712 173.996095 
L 229.822555 173.972948 
L 230.504397 174.176773 
L 231.218709 174.629865 
L 231.997958 175.39655 
L 232.874613 176.589088 
L 233.848674 178.310529 
L 234.920141 180.66791 
L 236.153951 183.952413 
L 237.582574 188.42835 
L 239.270947 194.485824 
L 241.413881 203.062451 
L 245.667281 221.293305 
L 248.524527 232.951437 
L 250.570055 240.409972 
L 252.290896 245.873591 
L 253.849394 250.11034 
L 255.278017 253.370948 
L 256.576765 255.796927 
L 257.778107 257.589489 
L 258.94698 258.943815 
L 260.050916 259.893806 
L 261.122383 260.531515 
L 262.19385 260.911445 
L 263.297786 261.066662 
L 264.499128 261.006941 
L 265.862813 260.710465 
L 267.583654 260.094583 
L 270.473369 258.77848 
L 273.135802 257.660281 
L 275.116393 257.069718 
L 276.837234 256.780199 
L 278.493138 256.728102 
L 280.246448 256.896183 
L 282.19457 257.311077 
L 284.564785 258.059981 
L 291.967649 260.564619 
L 294.143052 260.975141 
L 296.318455 261.158959 
L 298.558796 261.124672 
L 301.18876 260.84959 
L 311.254058 259.564185 
L 314.013897 259.595837 
L 317.065955 259.8688 
L 322.520697 260.635485 
L 326.384473 261.056997 
L 329.598874 261.183505 
L 332.94315 261.080504 
L 338.008268 260.669497 
L 342.94351 260.347892 
L 346.580005 260.335306 
L 350.768467 260.560593 
L 360.444141 261.17702 
L 364.535197 261.138581 
L 370.671781 260.823639 
L 376.288867 260.629574 
L 380.899422 260.70689 
L 395.672682 261.152723 
L 397.393523 261.120317 
L 397.393523 261.120317 
" clip-path="url(#p774ae9e944)" style="fill: none; stroke: #2ca02c; stroke-width: 1.5; stroke-linecap: square"/>
   </g>
   <g id="line2d_17">
    <path d="M 72.738977 260.629164 
L 80.856153 261.141771 
L 84.91474 261.168949 
L 88.908391 260.965124 
L 94.135852 260.448063 
L 100.369842 259.873568 
L 104.006337 259.776041 
L 107.41555 259.910019 
L 111.474138 260.303336 
L 119.331564 261.12051 
L 122.351153 261.172912 
L 125.240867 261.002722 
L 128.260457 260.59497 
L 132.448919 259.781507 
L 137.351693 258.869236 
L 140.144001 258.58243 
L 142.546685 258.553897 
L 145.014307 258.748465 
L 147.644271 259.182828 
L 151.767797 260.132252 
L 155.43676 260.892152 
L 157.6771 261.131118 
L 159.69016 261.121534 
L 161.573344 260.889171 
L 163.391592 260.439782 
L 165.404651 259.707172 
L 167.709929 258.622114 
L 175.43748 254.746424 
L 177.125852 254.278343 
L 178.619413 254.094196 
L 180.080504 254.142465 
L 181.509127 254.411766 
L 182.970219 254.917893 
L 184.561185 255.719001 
L 186.606713 257.018273 
L 191.639362 260.332855 
L 192.93811 260.838142 
L 194.009577 261.027279 
L 194.983638 260.97633 
L 195.892762 260.702882 
L 196.769417 260.203269 
L 197.646072 259.444199 
L 198.555195 258.353587 
L 199.496788 256.869779 
L 200.503317 254.864179 
L 201.607253 252.142518 
L 202.776126 248.636681 
L 204.009937 244.205411 
L 205.341154 238.56902 
L 206.834714 231.23786 
L 208.490618 221.941338 
L 210.341334 210.223335 
L 212.67908 193.899179 
L 220.861193 135.386075 
L 222.517097 125.876504 
L 223.913251 119.074549 
L 225.114593 114.270816 
L 226.153591 110.976044 
L 227.062715 108.77501 
L 227.841964 107.411716 
L 228.523807 106.626116 
L 229.108243 106.262366 
L 229.627743 106.183751 
L 230.147242 106.339263 
L 230.69921 106.760128 
L 231.316115 107.536155 
L 232.030426 108.82873 
L 232.842144 110.797433 
L 233.751268 113.614457 
L 234.790266 117.597608 
L 235.959139 123.006302 
L 237.322825 130.426911 
L 238.94626 140.564902 
L 240.959319 154.639582 
L 244.108783 178.489917 
L 247.875153 206.58915 
L 250.050556 221.157663 
L 251.803866 231.463439 
L 253.362363 239.367911 
L 254.790986 245.521388 
L 256.089734 250.170064 
L 257.258607 253.570959 
L 258.362543 256.135944 
L 259.401542 258.011979 
L 260.375603 259.32678 
L 261.284726 260.190742 
L 262.128913 260.701443 
L 262.973099 260.96047 
L 263.849754 260.99531 
L 264.791346 260.804968 
L 265.862813 260.35334 
L 267.19403 259.532147 
L 269.012277 258.12368 
L 272.811115 255.123619 
L 274.43455 254.171931 
L 275.863173 253.586662 
L 277.129453 253.300218 
L 278.363263 253.246371 
L 279.662011 253.410915 
L 281.058166 253.812743 
L 282.616663 254.499137 
L 284.532317 255.602694 
L 291.578025 259.901254 
L 293.298866 260.568656 
L 294.95477 260.969379 
L 296.610674 261.140943 
L 298.299046 261.090475 
L 300.182231 260.801154 
L 302.649852 260.180519 
L 308.624093 258.592532 
L 310.799496 258.313011 
L 312.877493 258.268923 
L 314.923021 258.446901 
L 317.358174 258.891733 
L 321.189481 259.854196 
L 324.890912 260.706723 
L 327.45594 261.061523 
L 329.793686 261.165322 
L 332.293776 261.04346 
L 335.410772 260.656289 
L 342.359074 259.714085 
L 345.151382 259.612446 
L 347.94369 259.742431 
L 351.385373 260.139028 
L 358.755768 261.06283 
L 361.775357 261.170593 
L 364.989759 261.053018 
L 369.437971 260.643297 
L 374.568026 260.226624 
L 377.912302 260.179556 
L 381.581265 260.361694 
L 393.432341 261.153976 
L 397.393523 261.04834 
L 397.393523 261.04834 
" clip-path="url(#p774ae9e944)" style="fill: none; stroke: #d62728; stroke-width: 1.5; stroke-linecap: square"/>
   </g>
   <g id="line2d_18">
    <path d="M 72.738977 260.302572 
L 79.784685 261.037293 
L 83.291305 261.173209 
L 86.375832 261.068189 
L 89.655171 260.73054 
L 94.200789 260.006924 
L 99.525656 259.205522 
L 102.545245 258.986783 
L 105.272616 259.008819 
L 108.129862 259.264092 
L 111.474138 259.795652 
L 118.649721 261.007091 
L 121.18228 261.163848 
L 123.552495 261.084786 
L 125.857773 260.784201 
L 128.357863 260.223976 
L 131.637202 259.243091 
L 136.832194 257.676324 
L 139.202409 257.217272 
L 141.215469 257.046831 
L 143.131122 257.107021 
L 145.144181 257.396373 
L 147.254647 257.930001 
L 150.046955 258.890147 
L 154.949729 260.595742 
L 156.865383 261.002837 
L 158.521286 261.1317 
L 160.079784 261.032881 
L 161.573344 260.715546 
L 163.034436 260.177871 
L 164.657871 259.334174 
L 166.476118 258.126213 
L 168.651521 256.395273 
L 174.008857 252.010679 
L 175.664761 251.007259 
L 177.028446 250.429559 
L 178.229788 250.152295 
L 179.398661 250.110271 
L 180.567535 250.29624 
L 181.736408 250.713074 
L 182.93775 251.385062 
L 184.268967 252.404024 
L 185.892402 253.94354 
L 188.42496 256.696562 
L 190.762707 259.135888 
L 192.061455 260.175647 
L 193.100453 260.731941 
L 193.977108 260.956718 
L 194.756357 260.93236 
L 195.503137 260.681993 
L 196.249917 260.182535 
L 196.996698 259.407474 
L 197.808415 258.221479 
L 198.652601 256.572832 
L 199.561725 254.287488 
L 200.535786 251.224316 
L 201.607253 247.087016 
L 202.743658 241.778719 
L 203.977468 234.891014 
L 205.308685 226.123602 
L 206.769777 214.977473 
L 208.393212 200.836766 
L 210.211459 182.985246 
L 212.516737 157.988128 
L 216.640262 110.2594 
L 219.497508 78.546021 
L 221.413161 59.645245 
L 222.971659 46.334924 
L 224.302875 36.780862 
L 225.43928 30.153493 
L 226.44581 25.546203 
L 227.289996 22.6308 
L 228.036776 20.795752 
L 228.653681 19.820139 
L 229.173181 19.385816 
L 229.595274 19.298135 
L 229.984898 19.431254 
L 230.43946 19.846682 
L 230.958959 20.659359 
L 231.575865 22.083739 
L 232.290176 24.342146 
L 233.101894 27.681035 
L 234.043486 32.551554 
L 235.114953 39.348869 
L 236.316295 48.46621 
L 237.744918 61.111408 
L 239.43329 78.130988 
L 241.608693 102.48635 
L 249.595994 194.291516 
L 251.414241 211.515618 
L 253.005208 224.563549 
L 254.466299 234.78301 
L 255.765047 242.387697 
L 256.966389 248.146448 
L 258.070325 252.396397 
L 259.109323 255.541643 
L 260.050916 257.720097 
L 260.927571 259.20882 
L 261.70682 260.12169 
L 262.4536 260.66347 
L 263.167911 260.906988 
L 263.882223 260.910779 
L 264.629003 260.689296 
L 265.473189 260.201691 
L 266.479719 259.354216 
L 267.778467 257.950063 
L 269.791526 255.39593 
L 272.356554 252.212517 
L 273.850114 250.721018 
L 275.148862 249.728529 
L 276.285266 249.132642 
L 277.291796 248.844302 
L 278.298326 248.787117 
L 279.337324 248.952786 
L 280.44126 249.356745 
L 281.642602 250.035619 
L 283.006288 251.068461 
L 284.759598 252.695823 
L 290.993588 258.74243 
L 292.552086 259.817951 
L 293.915771 260.496012 
L 295.246988 260.917335 
L 296.578205 261.10917 
L 297.909422 261.079665 
L 299.338044 260.820812 
L 301.026417 260.281107 
L 303.429101 259.253708 
L 307.650032 257.4353 
L 309.468279 256.913794 
L 311.18912 256.650429 
L 312.845024 256.619929 
L 314.468459 256.810224 
L 316.319175 257.260203 
L 318.656922 258.074069 
L 325.345474 260.554219 
L 327.391002 260.974 
L 329.274187 261.13928 
L 331.189841 261.077916 
L 333.397712 260.774676 
L 336.287427 260.133996 
L 341.125263 259.049338 
L 343.560416 258.761755 
L 345.70335 258.728478 
L 347.976159 258.923265 
L 350.671061 259.386807 
L 359.047986 261.014101 
L 361.45067 261.149507 
L 363.95076 261.060157 
L 366.905412 260.721986 
L 375.087525 259.638552 
L 377.749958 259.595273 
L 380.639673 259.782249 
L 384.308636 260.260681 
L 390.023128 261.002544 
L 392.815436 261.127251 
L 396.159712 261.024987 
L 397.393523 260.957594 
L 397.393523 260.957594 
" clip-path="url(#p774ae9e944)" style="fill: none; stroke: #9467bd; stroke-width: 1.5; stroke-linecap: square"/>
   </g>
   <g id="patch_3">
    <path d="M 56.50625 273.312 
L 56.50625 7.2 
" style="fill: none; stroke: #000000; stroke-width: 0.8; stroke-linejoin: miter; stroke-linecap: square"/>
   </g>
   <g id="patch_4">
    <path d="M 413.62625 273.312 
L 413.62625 7.2 
" style="fill: none; stroke: #000000; stroke-width: 0.8; stroke-linejoin: miter; stroke-linecap: square"/>
   </g>
   <g id="patch_5">
    <path d="M 56.50625 273.312 
L 413.62625 273.312 
" style="fill: none; stroke: #000000; stroke-width: 0.8; stroke-linejoin: miter; stroke-linecap: square"/>
   </g>
   <g id="patch_6">
    <path d="M 56.50625 7.2 
L 413.62625 7.2 
" style="fill: none; stroke: #000000; stroke-width: 0.8; stroke-linejoin: miter; stroke-linecap: square"/>
   </g>
   <g id="legend_1">
    <g id="patch_7">
     <path d="M 334.82625 88.7 
L 406.62625 88.7 
Q 408.62625 88.7 408.62625 86.7 
L 408.62625 14.2 
Q 408.62625 12.2 406.62625 12.2 
L 334.82625 12.2 
Q 332.82625 12.2 332.82625 14.2 
L 332.82625 86.7 
Q 332.82625 88.7 334.82625 88.7 
z
" style="fill: #ffffff; opacity: 0.8; stroke: #cccccc; stroke-linejoin: miter"/>
    </g>
    <g id="line2d_19">
     <path d="M 336.82625 20.3 
L 346.82625 20.3 
L 356.82625 20.3 
" style="fill: none; stroke: #1f77b4; stroke-width: 1.5; stroke-linecap: square"/>
    </g>
    <g id="text_16">
     <!-- $\phi=$0.1° -->
     <g transform="translate(364.82625 23.8) scale(0.1 -0.1)">
      <defs>
       <path id="DejaVuSans-Oblique-3d5" d="M 2991 4863 
L 2738 3572 
Q 3363 3572 3684 3094 
Q 4016 2606 3850 1747 
Q 3681 888 3159 400 
Q 2653 -78 2028 -78 
L 1784 -1331 
L 1213 -1331 
L 1456 -78 
Q 834 -78 509 400 
Q 178 888 347 1747 
Q 513 2606 1034 3094 
Q 1544 3572 2166 3572 
L 2419 4863 
L 2991 4863 
z
M 2128 434 
Q 2481 434 2784 756 
Q 3116 1116 3244 1747 
Q 3369 2372 3169 2738 
Q 2991 3059 2638 3059 
L 2128 434 
z
M 1556 434 
L 2066 3059 
Q 1716 3059 1413 2738 
Q 1072 2372 953 1747 
Q 834 1116 1028 756 
Q 1203 434 1556 434 
z
" transform="scale(0.015625)"/>
       <path id="DejaVuSans-3d" d="M 678 2906 
L 4684 2906 
L 4684 2381 
L 678 2381 
L 678 2906 
z
M 678 1631 
L 4684 1631 
L 4684 1100 
L 678 1100 
L 678 1631 
z
" transform="scale(0.015625)"/>
       <path id="DejaVuSans-b0" d="M 1600 4347 
Q 1350 4347 1178 4173 
Q 1006 4000 1006 3750 
Q 1006 3503 1178 3333 
Q 1350 3163 1600 3163 
Q 1850 3163 2022 3333 
Q 2194 3503 2194 3750 
Q 2194 3997 2020 4172 
Q 1847 4347 1600 4347 
z
M 1600 4750 
Q 1800 4750 1984 4673 
Q 2169 4597 2303 4453 
Q 2447 4313 2519 4134 
Q 2591 3956 2591 3750 
Q 2591 3338 2302 3052 
Q 2013 2766 1594 2766 
Q 1172 2766 890 3047 
Q 609 3328 609 3750 
Q 609 4169 896 4459 
Q 1184 4750 1600 4750 
z
" transform="scale(0.015625)"/>
      </defs>
      <use xlink:href="#DejaVuSans-Oblique-3d5" transform="translate(0 0.015625)"/>
      <use xlink:href="#DejaVuSans-3d" transform="translate(85.449219 0.015625)"/>
      <use xlink:href="#DejaVuSans-30" transform="translate(188.720703 0.015625)"/>
      <use xlink:href="#DejaVuSans-2e" transform="translate(252.34375 0.015625)"/>
      <use xlink:href="#DejaVuSans-31" transform="translate(284.130859 0.015625)"/>
      <use xlink:href="#DejaVuSans-b0" transform="translate(347.753906 0.015625)"/>
     </g>
    </g>
    <g id="line2d_20">
     <path d="M 336.82625 35 
L 346.82625 35 
L 356.82625 35 
" style="fill: none; stroke: #ff7f0e; stroke-width: 1.5; stroke-linecap: square"/>
    </g>
    <g id="text_17">
     <!-- $\phi=$0.2° -->
     <g transform="translate(364.82625 38.5) scale(0.1 -0.1)">
      <use xlink:href="#DejaVuSans-Oblique-3d5" transform="translate(0 0.015625)"/>
      <use xlink:href="#DejaVuSans-3d" transform="translate(85.449219 0.015625)"/>
      <use xlink:href="#DejaVuSans-30" transform="translate(188.720703 0.015625)"/>
      <use xlink:href="#DejaVuSans-2e" transform="translate(252.34375 0.015625)"/>
      <use xlink:href="#DejaVuSans-32" transform="translate(278.630859 0.015625)"/>
      <use xlink:href="#DejaVuSans-b0" transform="translate(342.253906 0.015625)"/>
     </g>
    </g>
    <g id="line2d_21">
     <path d="M 336.82625 49.7 
L 346.82625 49.7 
L 356.82625 49.7 
" style="fill: none; stroke: #2ca02c; stroke-width: 1.5; stroke-linecap: square"/>
    </g>
    <g id="text_18">
     <!-- $\phi=$0.3° -->
     <g transform="translate(364.82625 53.2) scale(0.1 -0.1)">
      <use xlink:href="#DejaVuSans-Oblique-3d5" transform="translate(0 0.015625)"/>
      <use xlink:href="#DejaVuSans-3d" transform="translate(85.449219 0.015625)"/>
      <use xlink:href="#DejaVuSans-30" transform="translate(188.720703 0.015625)"/>
      <use xlink:href="#DejaVuSans-2e" transform="translate(252.34375 0.015625)"/>
      <use xlink:href="#DejaVuSans-33" transform="translate(284.130859 0.015625)"/>
      <use xlink:href="#DejaVuSans-b0" transform="translate(347.753906 0.015625)"/>
     </g>
    </g>
    <g id="line2d_22">
     <path d="M 336.82625 64.4 
L 346.82625 64.4 
L 356.82625 64.4 
" style="fill: none; stroke: #d62728; stroke-width: 1.5; stroke-linecap: square"/>
    </g>
    <g id="text_19">
     <!-- $\phi=$0.4° -->
     <g transform="translate(364.82625 67.9) scale(0.1 -0.1)">
      <use xlink:href="#DejaVuSans-Oblique-3d5" transform="translate(0 0.015625)"/>
      <use xlink:href="#DejaVuSans-3d" transform="translate(85.449219 0.015625)"/>
      <use xlink:href="#DejaVuSans-30" transform="translate(188.720703 0.015625)"/>
      <use xlink:href="#DejaVuSans-2e" transform="translate(252.34375 0.015625)"/>
      <use xlink:href="#DejaVuSans-34" transform="translate(284.130859 0.015625)"/>
      <use xlink:href="#DejaVuSans-b0" transform="translate(347.753906 0.015625)"/>
     </g>
    </g>
    <g id="line2d_23">
     <path d="M 336.82625 79.1 
L 346.82625 79.1 
L 356.82625 79.1 
" style="fill: none; stroke: #9467bd; stroke-width: 1.5; stroke-linecap: square"/>
    </g>
    <g id="text_20">
     <!-- $\phi=$0.5° -->
     <g transform="translate(364.82625 82.6) scale(0.1 -0.1)">
      <use xlink:href="#DejaVuSans-Oblique-3d5" transform="translate(0 0.015625)"/>
      <use xlink:href="#DejaVuSans-3d" transform="translate(85.449219 0.015625)"/>
      <use xlink:href="#DejaVuSans-30" transform="translate(188.720703 0.015625)"/>
      <use xlink:href="#DejaVuSans-2e" transform="translate(252.34375 0.015625)"/>
      <use xlink:href="#DejaVuSans-35" transform="translate(284.130859 0.015625)"/>
      <use xlink:href="#DejaVuSans-b0" transform="translate(347.753906 0.015625)"/>
     </g>
    </g>
   </g>
  </g>
 </g>
 <defs>
  <clipPath id="p774ae9e944">
   <rect x="56.50625" y="7.2" width="357.12" height="266.112"/>
  </clipPath>
 </defs>
</svg>
